<svg width="114" height="23" viewBox="0 0 114 23" fill="none" xmlns="http://www.w3.org/2000/svg">
<path d="M0.384 0.412H14.592V3.316H9.12V17.5H5.856V3.316H0.384V0.412ZM21.2777 4.924C21.5417 4.924 21.7817 4.948 22.0217 4.972V7.756H21.2537C20.1017 7.756 19.2137 8.068 18.5897 8.644C17.9657 9.22 17.6777 10.084 17.6777 11.212V17.5H14.6537V5.116H17.5817V7.324C18.2537 5.74 19.5017 4.924 21.2777 4.924ZM34.0631 17.5H31.0391C30.8951 17.26 30.7751 16.756 30.7031 15.988C29.8631 17.188 28.5431 17.788 26.7191 17.788C25.3511 17.788 24.2711 17.476 23.4551 16.804C22.6391 16.156 22.2551 15.244 22.2551 14.068C22.2551 11.812 23.8391 10.54 27.0071 10.204L28.8791 10.036C29.5031 9.964 29.9351 9.82 30.2231 9.604C30.4871 9.388 30.6311 9.052 30.6311 8.62C30.6311 8.092 30.4391 7.708 30.1031 7.468C29.7671 7.228 29.1911 7.084 28.3751 7.084C27.4871 7.084 26.8631 7.252 26.4791 7.54C26.0951 7.828 25.8551 8.332 25.8071 9.052H22.8311C22.9991 6.244 24.8471 4.828 28.3991 4.828C31.8311 4.828 33.5591 6.076 33.5591 8.548V15.148C33.5591 16.252 33.7271 17.02 34.0631 17.5ZM27.4391 15.628C28.3751 15.628 29.1431 15.388 29.7431 14.86C30.3191 14.332 30.6311 13.588 30.6311 12.604V11.476C30.3431 11.74 29.8631 11.908 29.2151 11.98L27.5831 12.172C26.7671 12.268 26.1911 12.46 25.8551 12.748C25.5191 13.036 25.3511 13.42 25.3511 13.948C25.3511 14.476 25.5191 14.908 25.8791 15.196C26.2391 15.484 26.7671 15.628 27.4391 15.628ZM44.5794 6.724V0.412H47.6034V17.5H44.6754V15.772C43.7634 17.116 42.4434 17.788 40.7634 17.788C39.0354 17.788 37.6914 17.212 36.7074 16.012C35.6994 14.836 35.1954 13.276 35.1954 11.308C35.1954 9.34 35.6994 7.756 36.7074 6.58C37.6674 5.428 39.0354 4.828 40.7634 4.828C42.4194 4.828 43.6914 5.476 44.5794 6.724ZM39.1314 14.308C39.6834 14.98 40.4514 15.292 41.4594 15.292C42.4434 15.292 43.2354 14.956 43.8114 14.26C44.3634 13.588 44.6514 12.604 44.6514 11.308C44.6514 10.036 44.3634 9.052 43.8114 8.356C43.2354 7.684 42.4674 7.324 41.4594 7.324C40.4754 7.324 39.7074 7.684 39.1314 8.404C38.5554 9.124 38.2914 10.132 38.2914 11.404C38.2914 12.7 38.5554 13.66 39.1314 14.308ZM61.7323 11.524V12.244H52.4683C52.5643 13.3 52.9003 14.116 53.4523 14.644C54.0043 15.172 54.7483 15.436 55.6843 15.436C57.0523 15.436 57.9883 14.86 58.5163 13.66H61.4203C61.0843 14.932 60.4123 15.94 59.4043 16.684C58.3723 17.428 57.1243 17.788 55.6603 17.788C53.8123 17.788 52.3243 17.212 51.1963 16.012C50.0443 14.836 49.4923 13.276 49.4923 11.308C49.4923 9.364 50.0443 7.804 51.1723 6.604C52.3003 5.428 53.7883 4.828 55.6123 4.828C57.4843 4.828 58.9723 5.452 60.0763 6.676C61.1803 7.924 61.7323 9.532 61.7323 11.524ZM55.5883 7.18C53.8123 7.18 52.7803 8.164 52.4923 10.132H58.7083C58.5643 9.22 58.2283 8.5 57.7003 7.972C57.1483 7.444 56.4523 7.18 55.5883 7.18ZM76.9716 9.748L78.3636 5.116H81.6036L77.5236 17.5H74.3556L72.7956 12.412C72.1956 10.348 71.8356 9.1 71.7396 8.716C71.6916 8.908 71.3316 10.132 70.7076 12.412L69.1716 17.5H66.0036L61.9236 5.116H65.1636L66.5556 9.748C66.8916 10.852 67.2996 12.292 67.7796 14.044C68.2116 12.268 68.6196 10.828 68.9556 9.724L70.3236 5.116H73.2036L74.5716 9.724C74.9076 10.828 75.2916 12.268 75.7476 14.044C76.1556 12.46 76.5636 11.044 76.9716 9.748ZM85.7865 3.508H82.8105V0.675999H85.7865V3.508ZM85.8105 17.5H82.7865V5.116H85.8105V17.5ZM95.0394 4.828C96.3834 4.828 97.4394 5.236 98.2074 6.004C98.9754 6.772 99.3834 7.876 99.3834 9.292V17.5H96.3594V9.796C96.3594 8.236 95.5674 7.444 94.0314 7.444C93.2634 7.444 92.5914 7.732 92.0634 8.284C91.5354 8.836 91.2714 9.604 91.2714 10.564V17.5H88.2474V5.116H91.1754V6.892C92.1114 5.524 93.4074 4.828 95.0394 4.828ZM110.769 6.82V5.116H113.697V17.092C113.697 18.772 113.145 20.092 112.089 21.052C111.033 22.012 109.521 22.492 107.577 22.492C105.849 22.492 104.481 22.108 103.497 21.34C102.513 20.572 101.985 19.516 101.889 18.172H104.865C105.009 19.516 105.921 20.164 107.625 20.164C108.609 20.164 109.353 19.924 109.881 19.396C110.409 18.892 110.673 18.148 110.673 17.164V15.604C109.761 16.852 108.513 17.452 106.881 17.452C105.201 17.452 103.833 16.876 102.825 15.7C101.793 14.572 101.289 13.06 101.289 11.14C101.289 9.22 101.793 7.708 102.825 6.556C103.833 5.404 105.177 4.828 106.857 4.828C108.585 4.828 109.905 5.5 110.769 6.82ZM107.553 14.956C108.561 14.956 109.329 14.62 109.905 13.948C110.457 13.276 110.745 12.34 110.745 11.14C110.745 9.94 110.457 9.004 109.905 8.332C109.329 7.66 108.561 7.324 107.553 7.324C106.569 7.324 105.801 7.684 105.225 8.356C104.649 9.028 104.385 9.964 104.385 11.164C104.385 12.364 104.649 13.276 105.225 13.948C105.801 14.62 106.569 14.956 107.553 14.956Z" fill="#0C111D"/>
</svg>
