<svg width="111" height="109" viewBox="0 0 111 109" fill="none" xmlns="http://www.w3.org/2000/svg">
<path d="M3.10665 99.9653V74.6573H6.56265L16.8226 91.0733H14.8426L25.0666 74.6573H28.5227V99.9653H23.6626V83.0453L24.5986 83.3333L17.4706 94.7813H14.1586L7.03065 83.3333L8.00265 83.0453V99.9653H3.10665ZM43.6646 100.325C41.6726 100.325 39.8966 99.8933 38.3366 99.0293C36.8006 98.1413 35.5886 96.9293 34.7006 95.3933C33.8126 93.8573 33.3686 92.1173 33.3686 90.1733V74.6573H38.2646V90.3173C38.2646 91.4453 38.4926 92.4173 38.9486 93.2333C39.4286 94.0493 40.0766 94.6853 40.8926 95.1413C41.7326 95.5733 42.6566 95.7893 43.6646 95.7893C44.6966 95.7893 45.6086 95.5733 46.4006 95.1413C47.1926 94.6853 47.8166 94.0493 48.2726 93.2333C48.7526 92.4173 48.9926 91.4573 48.9926 90.3533V74.6573H53.9246V90.2093C53.9246 92.1533 53.4806 93.8933 52.5926 95.4293C51.7046 96.9413 50.4926 98.1413 48.9566 99.0293C47.4446 99.8933 45.6806 100.325 43.6646 100.325ZM58.759 99.9653V74.6573H63.655V99.9653H58.759ZM72.4488 89.3813V85.5653H78.3168C79.5168 85.5653 80.4408 85.2653 81.0888 84.6653C81.7608 84.0413 82.0968 83.1893 82.0968 82.1093C82.0968 81.1253 81.7608 80.3093 81.0888 79.6613C80.4408 78.9893 79.5168 78.6533 78.3168 78.6533H72.4488V74.6573H78.7488C80.3808 74.6573 81.8088 74.9813 83.0328 75.6293C84.2808 76.2533 85.2408 77.1173 85.9128 78.2213C86.6088 79.3253 86.9568 80.5973 86.9568 82.0373C86.9568 83.5253 86.6088 84.8213 85.9128 85.9253C85.2408 87.0053 84.2808 87.8573 83.0328 88.4813C81.7848 89.0813 80.3328 89.3813 78.6768 89.3813H72.4488ZM68.8488 99.9653V74.6573H73.7448V99.9653H68.8488ZM82.6728 99.9653L74.3208 89.0213L78.8208 87.6173L88.6128 99.9653H82.6728ZM91.384 99.9653V74.6573H96.28V99.9653H91.384ZM94.984 99.9653V95.6093H107.872V99.9653H94.984Z" fill="#FF0D16"/>
<path d="M4.10665 99.9653V74.6573H7.56265L17.8226 91.0733H15.8426L26.0666 74.6573H29.5227V99.9653H24.6626V83.0453L25.5986 83.3333L18.4706 94.7813H15.1586L8.03065 83.3333L9.00265 83.0453V99.9653H4.10665ZM44.6646 100.325C42.6726 100.325 40.8966 99.8933 39.3366 99.0293C37.8006 98.1413 36.5886 96.9293 35.7006 95.3933C34.8126 93.8573 34.3686 92.1173 34.3686 90.1733V74.6573H39.2646V90.3173C39.2646 91.4453 39.4926 92.4173 39.9486 93.2333C40.4286 94.0493 41.0766 94.6853 41.8926 95.1413C42.7326 95.5733 43.6566 95.7893 44.6646 95.7893C45.6966 95.7893 46.6086 95.5733 47.4006 95.1413C48.1926 94.6853 48.8166 94.0493 49.2726 93.2333C49.7526 92.4173 49.9926 91.4573 49.9926 90.3533V74.6573H54.9246V90.2093C54.9246 92.1533 54.4806 93.8933 53.5926 95.4293C52.7046 96.9413 51.4926 98.1413 49.9566 99.0293C48.4446 99.8933 46.6806 100.325 44.6646 100.325ZM59.759 99.9653V74.6573H64.655V99.9653H59.759ZM73.4488 89.3813V85.5653H79.3168C80.5168 85.5653 81.4408 85.2653 82.0888 84.6653C82.7608 84.0413 83.0968 83.1893 83.0968 82.1093C83.0968 81.1253 82.7608 80.3093 82.0888 79.6613C81.4408 78.9893 80.5168 78.6533 79.3168 78.6533H73.4488V74.6573H79.7488C81.3808 74.6573 82.8088 74.9813 84.0328 75.6293C85.2808 76.2533 86.2408 77.1173 86.9128 78.2213C87.6088 79.3253 87.9568 80.5973 87.9568 82.0373C87.9568 83.5253 87.6088 84.8213 86.9128 85.9253C86.2408 87.0053 85.2808 87.8573 84.0328 88.4813C82.7848 89.0813 81.3328 89.3813 79.6768 89.3813H73.4488ZM69.8488 99.9653V74.6573H74.7448V99.9653H69.8488ZM83.6728 99.9653L75.3208 89.0213L79.8208 87.6173L89.6128 99.9653H83.6728ZM92.384 99.9653V74.6573H97.28V99.9653H92.384ZM95.984 99.9653V95.6093H108.872V99.9653H95.984Z" fill="#071c35"/>
<path d="M48.0825 15.6671C34.8584 3.12663 18.9779 11.8426 16.8135 24.2849C13.2512 44.6514 42.2791 61.0091 64.1364 64.1301C45.2677 58.6629 17.8216 42.5315 21.5067 25.0861C23.1038 16.8343 31.5773 12.6628 38.0187 14.7488C42.7458 16.2328 46.6507 20.8722 50.5907 25.0178C51.8714 19.111 52.934 12.6806 58.0502 8.21248C66.4094 0.853192 84.9654 2.38808 82.0916 29.738C90.9846 -2.67029 57.0607 -8.18966 48.0825 15.6671Z" fill="#071c35"/>
<path d="M74.753 33.5765C83.0694 25.6899 93.0565 31.1713 94.4176 38.996C96.6579 51.804 78.4025 62.0912 64.6569 64.054C76.523 60.6162 93.7837 50.4711 91.4658 39.4999C90.4614 34.3106 85.1328 31.6869 81.0816 32.9987C78.1088 33.932 75.6532 36.8495 73.1753 39.457C72.3701 35.7424 71.7018 31.6982 68.4842 28.8886C63.227 24.2605 51.5576 25.2257 53.3648 42.4258C47.7727 22.044 69.1068 18.5731 74.753 33.5765Z" fill="#FF0D16"/>
</svg>
